<?xml version="1.0" encoding="UTF-8" standalone="no"?>
<!--?xml version="1.0" encoding="utf-8"?-->

<!-- Generator: Adobe Illustrator 18.1.1, SVG Export Plug-In . SVG Version: 6.00 Build 0)  -->

<svg
   version="1.1"
   id="_x31_0"
   x="0px"
   y="0px"
   viewBox="0 0 512 512"
   style="width: 512px; height: 512px; opacity: 1;"
   xml:space="preserve"
   sodipodi:docname="icho_background.svg"
   inkscape:version="1.4.2 (ebf0e940, 2025-05-08)"
   inkscape:export-filename="icho_background.png"
   inkscape:export-xdpi="96"
   inkscape:export-ydpi="96"
   xmlns:inkscape="http://www.inkscape.org/namespaces/inkscape"
   xmlns:sodipodi="http://sodipodi.sourceforge.net/DTD/sodipodi-0.dtd"
   xmlns="http://www.w3.org/2000/svg"
   xmlns:svg="http://www.w3.org/2000/svg"><defs
   id="defs1" /><sodipodi:namedview
   id="namedview1"
   pagecolor="#ffffff"
   bordercolor="#000000"
   borderopacity="0.25"
   inkscape:showpageshadow="2"
   inkscape:pageopacity="0.0"
   inkscape:pagecheckerboard="0"
   inkscape:deskcolor="#d1d1d1"
   inkscape:zoom="1.2069982"
   inkscape:cx="223.2812"
   inkscape:cy="258.90677"
   inkscape:window-width="896"
   inkscape:window-height="250"
   inkscape:window-x="209"
   inkscape:window-y="31"
   inkscape:window-maximized="0"
   inkscape:current-layer="_x31_0" />
<style
   type="text/css"
   id="style1">
	.st0{fill:#374149;}
</style>
<rect
   style="fill:#ffffff;stroke-width:1.00733"
   id="rect1"
   width="512"
   height="512"
   x="0"
   y="0"
   ry="128" /><g
   id="g1"
   transform="matrix(0.86032544,0,0,0.84664507,35.756705,41.258937)">
	<path
   class="st0"
   d="m 507.656,205.98 -1.496,-7.082 -7.242,0.946 c -1.817,0.207 -3.793,0.473 -5.809,0.699 -0.203,-0.008 -0.406,-0.015 -0.613,-0.031 2.64,-2.637 5.277,-5.274 7.762,-8.066 l 3.07,-3.386 -1.418,-4.329 C 488.844,144.985 463.66,108.228 429.028,78.556 l -1.574,-1.336 -5.274,-1.184 -2.832,2.047 c -9.274,6.504 -21.902,14.691 -36.949,22.844 -3.379,1.781 -6.774,3.531 -10.199,5.179 12.062,-18.262 23.39,-36.465 26.293,-41.246 l 4.09,-6.61 -6.531,-4.172 C 368.818,36.84 338.517,24.09 306.17,16.219 285.548,11.184 264.533,8.348 243.756,7.641 l -6.141,-0.156 -1.652,5.902 c -1.184,4.141 -2.406,8.453 -3.68,12.813 -0.266,0.785 -0.5,1.562 -0.797,2.359 -2.496,-6.531 -4.988,-11.985 -7.094,-16.195 l -2.282,-4.645 -5.195,0.316 c -48.562,2.91 -93.82,17.63 -130.89,42.657 l -3.617,2.519 0.156,4.328 c 0.176,5.129 0.297,10.832 0.383,16.809 -0.008,1.953 0.015,3.82 -0.035,5.867 C 79.958,76.493 76.931,72.84 73.83,69.348 l -5.278,-5.746 -5.824,5.114 C 32.193,95.794 11.099,130.189 1.888,168.204 l -1.839,7.516 -0.012,0.043 H 0.041 L 0,175.914 l 7.633,1.813 c 103.344,25.105 182.285,105.07 192.676,194.796 -1.106,4.016 -2.286,8.028 -3.543,11.965 -2.598,8.5 -5.039,15.665 -7.477,21.958 -5.039,13.222 -11.019,25.738 -17.394,36.363 -1.262,2.281 -2.676,4.328 -4.41,6.691 -1.336,2.047 -2.672,3.934 -4.328,5.981 -2.046,2.832 -4.328,5.195 -6.297,7.242 l -1.258,1.414 c -1.18,1.262 -2.359,2.207 -3.305,2.992 -0.711,0.629 -1.418,1.18 -1.969,1.73 -1.336,1.106 -2.047,1.734 -2.359,1.969 -1.024,0.867 -1.89,1.653 -2.442,2.442 -6.77,8.027 -5.746,19.992 2.282,26.836 3.465,2.836 7.793,4.41 12.277,4.41 5.59,0 10.863,-2.442 14.485,-6.77 l 3.699,-4.25 c 1.34,-1.496 2.91,-3.382 4.484,-5.43 2.676,-3.226 5.59,-7.164 8.738,-11.57 3.621,-4.801 6.926,-10.234 10.309,-15.82 7.008,-11.492 14.168,-25.578 20.699,-40.77 3.148,-7.242 6.218,-15.191 9.289,-23.614 1.89,-5.195 3.621,-10.39 5.352,-15.742 39.195,-57.692 110.82,-92.086 191.808,-92.086 22.668,0 45.649,2.754 68.16,8.266 l 7.633,1.887 1.89,-7.633 c 6.77,-27.941 7.165,-56.512 1.024,-85.004 z M 174.57,216.449 c 23.297,-12.278 48.874,-21.094 75.874,-25.344 -0.992,6.863 -2.414,14.594 -4.175,22.649 -0.512,2.137 -0.946,4.371 -1.528,6.438 0.063,-0.063 0.114,-0.114 0.176,-0.172 -0.027,0.098 -0.039,0.187 -0.062,0.285 12.75,-12.355 23.375,-23.058 32.27,-32.113 4.406,-0.234 8.894,-0.391 13.301,-0.391 18.574,0 36.598,2.047 53.992,5.981 -0.828,5.633 -2.027,11.758 -3.426,18.062 -0.496,2.023 -0.914,4.058 -1.485,6.066 0.059,-0.062 0.114,-0.114 0.172,-0.172 -0.023,0.098 -0.039,0.188 -0.062,0.286 7.554,-7.321 14.402,-14.012 20.543,-20.227 27.625,8.028 53.207,20.778 75.871,37.305 6.14,4.489 2.914,14.09 -4.719,14.012 h -2.363 c -73.984,0 -141.672,25.266 -189.762,69.418 -4.012,3.622 -10.469,1.969 -12.278,-3.07 -11.648,-31.718 -30.144,-61.234 -54.148,-86.89 -3.464,-3.701 -2.675,-9.764 1.809,-12.123 z"
   style="fill:#f7c333"
   id="path1" />
</g>
</svg>
