<!--?xml version="1.0" encoding="utf-8"?-->
<!-- Generator: Adobe Illustrator 18.1.1, SVG Export Plug-In . SVG Version: 6.00 Build 0)  -->

<svg version="1.1" id="_x31_0" xmlns="http://www.w3.org/2000/svg" xmlns:xlink="http://www.w3.org/1999/xlink" x="0px" y="0px" viewBox="0 0 512 512" style="width: 512px; height: 512px; opacity: 1;" xml:space="preserve">
<style type="text/css">
	.st0{fill:#374149;}
</style>
<g>
	<path class="st0" d="M507.656,205.98l-1.496-7.082l-7.242,0.946c-1.817,0.207-3.793,0.473-5.809,0.699
		c-0.203-0.008-0.406-0.015-0.613-0.031c2.64-2.637,5.277-5.274,7.762-8.066l3.07-3.386l-1.418-4.329
		c-13.066-39.746-38.25-76.503-72.882-106.175l-1.574-1.336l-5.274-1.184l-2.832,2.047c-9.274,6.504-21.902,14.691-36.949,22.844
		c-3.379,1.781-6.774,3.531-10.199,5.179c12.062-18.262,23.39-36.465,26.293-41.246l4.09-6.61l-6.531-4.172
		c-27.234-17.238-57.535-29.988-89.882-37.859c-20.622-5.035-41.637-7.871-62.414-8.578l-6.141-0.156l-1.652,5.902
		c-1.184,4.141-2.406,8.453-3.68,12.813c-0.266,0.785-0.5,1.562-0.797,2.359c-2.496-6.531-4.988-11.985-7.094-16.195l-2.282-4.645
		l-5.195,0.316c-48.562,2.91-93.82,17.63-130.89,42.657l-3.617,2.519l0.156,4.328c0.176,5.129,0.297,10.832,0.383,16.809
		c-0.008,1.953,0.015,3.82-0.035,5.867c-2.954-3.722-5.981-7.375-9.082-10.867l-5.278-5.746l-5.824,5.114
		c-30.535,27.078-51.629,61.473-60.84,99.488l-1.839,7.516l-0.012,0.043h0.004L0,175.914l7.633,1.813
		c103.344,25.105,182.285,105.07,192.676,194.796c-1.106,4.016-2.286,8.028-3.543,11.965c-2.598,8.5-5.039,15.665-7.477,21.958
		c-5.039,13.222-11.019,25.738-17.394,36.363c-1.262,2.281-2.676,4.328-4.41,6.691c-1.336,2.047-2.672,3.934-4.328,5.981
		c-2.046,2.832-4.328,5.195-6.297,7.242l-1.258,1.414c-1.18,1.262-2.359,2.207-3.305,2.992c-0.711,0.629-1.418,1.18-1.969,1.73
		c-1.336,1.106-2.047,1.734-2.359,1.969c-1.024,0.867-1.89,1.653-2.442,2.442c-6.77,8.027-5.746,19.992,2.282,26.836
		c3.465,2.836,7.793,4.41,12.277,4.41c5.59,0,10.863-2.442,14.485-6.77l3.699-4.25c1.34-1.496,2.91-3.382,4.484-5.43
		c2.676-3.226,5.59-7.164,8.738-11.57c3.621-4.801,6.926-10.234,10.309-15.82c7.008-11.492,14.168-25.578,20.699-40.77
		c3.148-7.242,6.218-15.191,9.289-23.614c1.89-5.195,3.621-10.39,5.352-15.742c39.195-57.692,110.82-92.086,191.808-92.086
		c22.668,0,45.649,2.754,68.16,8.266l7.633,1.887l1.89-7.633C513.402,263.043,513.797,234.472,507.656,205.98z M174.57,216.449
		c23.297-12.278,48.874-21.094,75.874-25.344c-0.992,6.863-2.414,14.594-4.175,22.649c-0.512,2.137-0.946,4.371-1.528,6.438
		c0.063-0.063,0.114-0.114,0.176-0.172c-0.027,0.098-0.039,0.187-0.062,0.285c12.75-12.355,23.375-23.058,32.27-32.113
		c4.406-0.234,8.894-0.391,13.301-0.391c18.574,0,36.598,2.047,53.992,5.981c-0.828,5.633-2.027,11.758-3.426,18.062
		c-0.496,2.023-0.914,4.058-1.485,6.066c0.059-0.062,0.114-0.114,0.172-0.172c-0.023,0.098-0.039,0.188-0.062,0.286
		c7.554-7.321,14.402-14.012,20.543-20.227c27.625,8.028,53.207,20.778,75.871,37.305c6.14,4.489,2.914,14.09-4.719,14.012h-2.363
		c-73.984,0-141.672,25.266-189.762,69.418c-4.012,3.622-10.469,1.969-12.278-3.07c-11.648-31.718-30.144-61.234-54.148-86.89
		C169.297,224.871,170.086,218.808,174.57,216.449z" style="fill: rgb(247, 195, 51);"></path>
</g>
</svg>
